<svg width="219" height="56" viewBox="0 0 219 56" fill="none" xmlns="http://www.w3.org/2000/svg">
<path d="M218.73 35.1209C217.834 54.6355 195.894 54.1742 193.99 54.0997V27.8863C198.67 27.8863 205.023 27.2228 205.959 39.1409H206.124V16.2237H205.962C204.756 27.2228 198.551 27.3009 193.994 27.3009V2.24777C202.993 2.24777 212.819 0.505655 216.639 19.5022H216.858V1.61621H169.607V2.13778H174.509V40.9504C174.329 50.6935 167.156 55.1606 161.623 54.9654C151.472 54.6106 150.31 45.1301 150.31 43.1822V2.13778H155.165V1.61621H136.264V2.13778H141.271V38.4277C141.271 48.1566 146.285 55.6609 160.928 55.6609C170.748 55.6609 175.254 47.6173 175.154 40.9504V2.13778H179.606H184.869V54.0926H180.107V54.6532H219V35.1387L218.73 35.1209Z" fill="white"/>
<path d="M119.659 32.8356H124.008V44.5904C124.008 50.0297 121.625 54.997 114.087 55.1425C108.666 55.217 105.689 52.1905 104.106 48.0002C102.385 43.5154 101.755 38.8106 101.755 28.1485C101.755 21.3078 102.385 11.1602 104.764 6.60448C105.891 4.47562 107.939 0.696894 113.958 0.72173C121.517 0.750115 125.894 6.82446 129.133 19.5444H129.292V0.0546875H129.119C127.532 3.80503 121.56 1.97066 121.56 1.97066C118.252 0.941712 116.798 0.196611 113.889 0.196611C104.566 0.196611 91.7412 9.53166 91.7412 28.7978C91.7412 44.5337 101.327 55.6499 114.418 55.6499C119.839 55.6499 123.147 51.747 127.776 51.747C129.216 51.747 131.898 52.6446 132.359 54.9402H132.47V32.8356H136.588V32.3105H119.67L119.659 32.8356Z" fill="white"/>
<path d="M63.9817 0.327637C52.9239 0.327637 40.8042 11.2203 40.8042 27.8502C40.8042 44.4802 53.3198 55.5254 63.9817 55.5254C74.6436 55.5254 87.1556 44.4873 87.1556 27.8502C87.1556 11.2132 75.0395 0.327637 63.9817 0.327637ZM73.4485 49.5575C71.4616 53.3859 68.0204 55.0038 63.9817 55.0038C59.943 55.0038 56.4982 53.3859 54.5113 49.5575C51.3329 43.5967 51.0341 31.6041 51.0341 27.8502C51.0341 24.0964 51.3329 12.4692 54.5113 6.28844C56.4334 2.46004 59.9394 0.845659 63.9817 0.845659C68.024 0.845659 71.5408 2.46004 73.4485 6.28844C76.6269 12.4692 76.9257 24.0964 76.9257 27.8502C76.9257 31.6041 76.6269 43.5967 73.4485 49.5575Z" fill="white"/>
<path d="M45.703 2.13043V1.62305H35.8186V2.13043H40.8112L28.5223 42.6675L13.6778 2.13043H17.9684V1.62305H0.0678711V2.13043H4.98126L25.1135 54.9403H25.3979L41.4195 2.13043H45.703Z" fill="white"/>
</svg>
